<svg width="39" height="89" viewBox="0 0 39 89" fill="none" xmlns="http://www.w3.org/2000/svg">
<path d="M37.3407 35.162C32.9079 14.6297 23.6569 9.16231 21.3094 5.29747C20.0335 3.19507 18.7326 0 18.7326 0C18.6054 1.82113 18.3799 2.97451 16.8997 4.35857C13.9355 7.13276 1.33866 17.9098 0.280565 41.2405C-0.706216 62.9929 15.5063 76.4086 17.661 77.7947C19.3069 78.6445 21.3229 77.8109 22.2865 77.0318C30.0998 71.3984 40.7887 56.3782 37.3311 35.162" fill="#10AA50"/>
<path d="M19.404 66.208C18.9974 71.5945 18.7044 74.7289 17.6695 77.8005C17.6695 77.8005 18.3517 82.926 18.8258 88.357H20.5161C20.9196 84.5319 21.5354 80.7348 22.3605 76.9851C20.1711 75.858 19.4869 70.9328 19.404 66.208Z" fill="#B8C4C2"/>
<path d="M22.3593 76.9893C20.1467 75.9169 19.5069 70.8926 19.4086 66.2082C19.9537 58.4852 20.1113 50.7374 19.8808 42.9969C19.7651 38.9358 19.9386 5.37639 18.9287 0.463379C19.3373 1.42453 20.324 3.68273 21.3108 5.29545C23.6679 9.16232 32.9113 14.6298 37.3402 35.164C40.792 56.3256 30.1668 71.3195 22.3593 76.9893Z" fill="#12924F"/>
</svg>
